HIERARCHY
ROOT newVegas:Hips
{
	OFFSET 0.000000 96.479958 0.000000
	CHANNELS 6 Xposition Yposition Zposition Xrotation Yrotation Zrotation
	JOINT newVegas:Pelvis
	{
		OFFSET 0.000000 0.000000 0.000000
		CHANNELS 3 Xrotation Yrotation Zrotation
		JOINT newVegas:LeftUpLeg
		{
			OFFSET 18.735201 -5.666702 -4.541200
			CHANNELS 3 Xrotation Yrotation Zrotation
			JOINT newVegas:LeftLeg
			{
				OFFSET -0.021200 -31.938179 0.493100
				CHANNELS 3 Xrotation Yrotation Zrotation
				JOINT newVegas:LeftFoot
				{
					OFFSET 0.021200 -31.938179 -4.336299
					CHANNELS 3 Xrotation Yrotation Zrotation
					JOINT newVegas:LeftToeBase
					{
						OFFSET 0.943001 -26.722000 15.023500
						CHANNELS 3 Xrotation Yrotation Zrotation
						End Site
						{
							OFFSET 0.000000 30.670183 0.000000
						}
					}
				}
				JOINT newVegas:Left_PantLeg
				{
					OFFSET 0.663870 -9.044666 -1.108900
					CHANNELS 3 Xrotation Yrotation Zrotation
					End Site
					{
						OFFSET 1.415995 20.635357 0.000000
					}
				}
			}
		}
		JOINT newVegas:RightUpLeg
		{
			OFFSET -18.735201 -5.666702 -4.541200
			CHANNELS 3 Xrotation Yrotation Zrotation
			JOINT newVegas:RightLeg
			{
				OFFSET 0.018946 -31.938133 0.493100
				CHANNELS 3 Xrotation Yrotation Zrotation
				JOINT newVegas:RightFoot
				{
					OFFSET -0.018946 -31.938126 -4.336299
					CHANNELS 3 Xrotation Yrotation Zrotation
					JOINT newVegas:RightToeBase
					{
						OFFSET -0.943001 -26.722004 15.023500
						CHANNELS 3 Xrotation Yrotation Zrotation
						End Site
						{
							OFFSET 0.000000 30.670187 0.000000
						}
					}
				}
				JOINT newVegas:Right_PantLeg
				{
					OFFSET -0.661674 -9.044716 -1.108900
					CHANNELS 3 Xrotation Yrotation Zrotation
					End Site
					{
						OFFSET -1.415958 20.635269 0.000000
					}
				}
			}
		}
	}
	JOINT newVegas:Spine
	{
		OFFSET 0.000000 10.199997 -0.299500
		CHANNELS 3 Xrotation Yrotation Zrotation
		JOINT newVegas:Spine1
		{
			OFFSET 0.000000 11.900002 -1.516600
			CHANNELS 3 Xrotation Yrotation Zrotation
			JOINT newVegas:Spine2
			{
				OFFSET 0.000000 13.600006 -2.842500
				CHANNELS 3 Xrotation Yrotation Zrotation
				JOINT newVegas:Neck
				{
					OFFSET 0.000000 9.624100 -2.890100
					CHANNELS 3 Xrotation Yrotation Zrotation
					JOINT newVegas:Head
					{
						OFFSET 0.000000 14.068802 -1.351900
						CHANNELS 3 Xrotation Yrotation Zrotation
						JOINT newVegas:Hair_Back
						{
							OFFSET 0.000000 3.231903 -17.524799
							CHANNELS 3 Xrotation Yrotation Zrotation
							End Site
							{
								OFFSET 0.000000 19.849884 0.000000
							}
						}
						JOINT newVegas:Hair_Front
						{
							OFFSET 0.000000 31.260406 4.573800
							CHANNELS 3 Xrotation Yrotation Zrotation
							JOINT newVegas:Hair_Front1
							{
								OFFSET 0.000000 2.284103 11.993300
								CHANNELS 3 Xrotation Yrotation Zrotation
								JOINT newVegas:Hair_Front2
								{
									OFFSET 0.000000 2.284103 11.993300
									CHANNELS 3 Xrotation Yrotation Zrotation
									End Site
									{
										OFFSET 0.000000 12.208862 0.000000
									}
								}
							}
						}
						JOINT newVegas:Jowel
						{
							OFFSET 0.000000 -7.458206 6.864100
							CHANNELS 3 Xrotation Yrotation Zrotation
							End Site
							{
								OFFSET 0.000000 19.849884 0.000000
							}
						}
					}
				}
				JOINT newVegas:LeftShoulder
				{
					OFFSET 15.263000 10.923401 -0.547700
					CHANNELS 3 Xrotation Yrotation Zrotation
					JOINT newVegas:LeftArm
					{
						OFFSET 25.438599 -2.830597 -13.032500
						CHANNELS 3 Xrotation Yrotation Zrotation
						JOINT newVegas:LeftForeArm
						{
							OFFSET 29.960503 0.000000 0.000000
							CHANNELS 3 Xrotation Yrotation Zrotation
							JOINT newVegas:LeftHand
							{
								OFFSET 27.849251 0.000000 0.000000
								CHANNELS 3 Xrotation Yrotation Zrotation
								JOINT newVegas:LeftHandThumb1
								{
									OFFSET 4.487587 -3.305161 6.305391
									CHANNELS 3 Xrotation Yrotation Zrotation
									JOINT newVegas:LeftHandThumb2
									{
										OFFSET 5.480453 -3.164139 3.164143
										CHANNELS 3 Xrotation Yrotation Zrotation
										JOINT newVegas:LeftHandThumb3
										{
											OFFSET 5.159721 -2.978973 2.978967
											CHANNELS 3 Xrotation Yrotation Zrotation
											End Site
											{
												OFFSET 2.494507 5.926697 1.738678
											}
										}
									}
								}
								JOINT newVegas:LeftHandIndex1
								{
									OFFSET 18.578728 -0.527832 5.208049
									CHANNELS 3 Xrotation Yrotation Zrotation
									JOINT newVegas:LeftHandIndex2
									{
										OFFSET 3.192009 0.000000 0.000000
										CHANNELS 3 Xrotation Yrotation Zrotation
										JOINT newVegas:LeftHandIndex3
										{
											OFFSET 3.835129 0.000000 0.000000
											CHANNELS 3 Xrotation Yrotation Zrotation
											End Site
											{
												OFFSET -0.034599 3.816971 0.371180
											}
										}
									}
								}
								JOINT newVegas:LeftHandMiddle1
								{
									OFFSET 18.476105 0.000000 0.000000
									CHANNELS 3 Xrotation Yrotation Zrotation
									JOINT newVegas:LeftHandMiddle2
									{
										OFFSET 3.324875 0.000000 0.000000
										CHANNELS 3 Xrotation Yrotation Zrotation
										JOINT newVegas:LeftHandMiddle3
										{
											OFFSET 4.596550 0.000000 0.000000
											CHANNELS 3 Xrotation Yrotation Zrotation
											End Site
											{
												OFFSET 0.057701 4.578827 0.399218
											}
										}
									}
								}
								JOINT newVegas:LeftHandRing1
								{
									OFFSET 17.732719 0.121887 -4.201567
									CHANNELS 3 Xrotation Yrotation Zrotation
									JOINT newVegas:LeftHandRing2
									{
										OFFSET 2.733170 0.000000 0.000000
										CHANNELS 3 Xrotation Yrotation Zrotation
										JOINT newVegas:LeftHandRing3
										{
											OFFSET 3.178268 0.000000 0.000000
											CHANNELS 3 Xrotation Yrotation Zrotation
											End Site
											{
												OFFSET 0.119102 3.170624 0.185394
											}
										}
									}
								}
								JOINT newVegas:LeftHandPinky1
								{
									OFFSET 15.989624 -0.606689 -7.535461
									CHANNELS 3 Xrotation Yrotation Zrotation
									JOINT newVegas:LeftHandPinky2
									{
										OFFSET 2.538986 0.000000 0.000000
										CHANNELS 3 Xrotation Yrotation Zrotation
										JOINT newVegas:LeftHandPinky3
										{
											OFFSET 2.593102 0.000000 0.000000
											CHANNELS 3 Xrotation Yrotation Zrotation
											End Site
											{
												OFFSET -0.150902 2.584198 0.152708
											}
										}
									}
								}
							}
							JOINT newVegas:Left_Sleeve
							{
								OFFSET 0.267448 -0.649796 0.577675
								CHANNELS 3 Xrotation Yrotation Zrotation
								End Site
								{
									OFFSET 0.000000 15.991241 0.000000
								}
							}
							JOINT newVegas:Left_CapeC
							{
								OFFSET 15.715958 -8.608795 -6.935905
								CHANNELS 3 Xrotation Yrotation Zrotation
								JOINT newVegas:Left_CapeC1
								{
									OFFSET 0.000000 -8.688499 0.000000
									CHANNELS 3 Xrotation Yrotation Zrotation
									End Site
									{
										OFFSET 0.000000 8.688499 0.000000
									}
								}
							}
						}
						JOINT newVegas:Left_CapeB
						{
							OFFSET 26.118385 -8.608795 -7.079235
							CHANNELS 3 Xrotation Yrotation Zrotation
							JOINT newVegas:Left_CapeB1
							{
								OFFSET 0.000000 -8.688499 0.000000
								CHANNELS 3 Xrotation Yrotation Zrotation
								End Site
								{
									OFFSET 0.000000 8.688499 0.000000
								}
							}
						}
						JOINT newVegas:Left_CapeA
						{
							OFFSET 5.115639 -8.608795 -10.395809
							CHANNELS 3 Xrotation Yrotation Zrotation
							JOINT newVegas:Left_CapeA1
							{
								OFFSET 0.000000 -8.688499 0.000000
								CHANNELS 3 Xrotation Yrotation Zrotation
								End Site
								{
									OFFSET 0.000000 8.688499 0.000000
								}
							}
						}
					}
				}
				JOINT newVegas:RightShoulder
				{
					OFFSET -15.263000 10.923401 -0.547700
					CHANNELS 3 Xrotation Yrotation Zrotation
					JOINT newVegas:RightArm
					{
						OFFSET -25.438599 -2.830597 -13.032500
						CHANNELS 3 Xrotation Yrotation Zrotation
						JOINT newVegas:RightForeArm
						{
							OFFSET -29.960503 0.000000 0.000000
							CHANNELS 3 Xrotation Yrotation Zrotation
							JOINT newVegas:RightHand
							{
								OFFSET -27.849251 0.000000 0.000000
								CHANNELS 3 Xrotation Yrotation Zrotation
								JOINT newVegas:RightHandThumb1
								{
									OFFSET -4.487587 -3.305161 6.305391
									CHANNELS 3 Xrotation Yrotation Zrotation
									JOINT newVegas:RightHandThumb2
									{
										OFFSET -5.480453 -3.164139 3.164143
										CHANNELS 3 Xrotation Yrotation Zrotation
										JOINT newVegas:RightHandThumb3
										{
											OFFSET -5.159721 -2.978973 2.978967
											CHANNELS 3 Xrotation Yrotation Zrotation
											End Site
											{
												OFFSET -2.494507 5.926697 1.738678
											}
										}
									}
								}
								JOINT newVegas:RightHandIndex1
								{
									OFFSET -18.578728 -0.527832 5.208049
									CHANNELS 3 Xrotation Yrotation Zrotation
									JOINT newVegas:RightHandIndex2
									{
										OFFSET -3.192009 0.000000 0.000000
										CHANNELS 3 Xrotation Yrotation Zrotation
										JOINT newVegas:RightHandIndex3
										{
											OFFSET -3.835129 0.000000 0.000000
											CHANNELS 3 Xrotation Yrotation Zrotation
											End Site
											{
												OFFSET 0.034599 3.816971 0.371180
											}
										}
									}
								}
								JOINT newVegas:RightHandMiddle1
								{
									OFFSET -18.476105 0.000000 0.000000
									CHANNELS 3 Xrotation Yrotation Zrotation
									JOINT newVegas:RightHandMiddle2
									{
										OFFSET -3.324875 0.000000 0.000000
										CHANNELS 3 Xrotation Yrotation Zrotation
										JOINT newVegas:RightHandMiddle3
										{
											OFFSET -4.596550 0.000000 0.000000
											CHANNELS 3 Xrotation Yrotation Zrotation
											End Site
											{
												OFFSET -0.057701 4.578827 0.399218
											}
										}
									}
								}
								JOINT newVegas:RightHandRing1
								{
									OFFSET -17.732719 0.121887 -4.201567
									CHANNELS 3 Xrotation Yrotation Zrotation
									JOINT newVegas:RightHandRing2
									{
										OFFSET -2.733170 0.000000 0.000000
										CHANNELS 3 Xrotation Yrotation Zrotation
										JOINT newVegas:RightHandRing3
										{
											OFFSET -3.178268 0.000000 0.000000
											CHANNELS 3 Xrotation Yrotation Zrotation
											End Site
											{
												OFFSET -0.119102 3.170624 0.185394
											}
										}
									}
								}
								JOINT newVegas:RightHandPinky1
								{
									OFFSET -15.989624 -0.606689 -7.535461
									CHANNELS 3 Xrotation Yrotation Zrotation
									JOINT newVegas:RightHandPinky2
									{
										OFFSET -2.538986 0.000000 0.000000
										CHANNELS 3 Xrotation Yrotation Zrotation
										JOINT newVegas:RightHandPinky3
										{
											OFFSET -2.593102 0.000000 0.000000
											CHANNELS 3 Xrotation Yrotation Zrotation
											End Site
											{
												OFFSET 0.150902 2.584198 0.152708
											}
										}
									}
								}
							}
							JOINT newVegas:Right_CapeC
							{
								OFFSET -15.715958 -8.608795 -6.935905
								CHANNELS 3 Xrotation Yrotation Zrotation
								JOINT newVegas:Right_CapeC1
								{
									OFFSET 0.000000 -8.688499 0.000000
									CHANNELS 3 Xrotation Yrotation Zrotation
									End Site
									{
										OFFSET 0.000000 8.688499 0.000000
									}
								}
							}
							JOINT newVegas:Right_Sleeve
							{
								OFFSET -0.267448 -0.649994 0.577675
								CHANNELS 3 Xrotation Yrotation Zrotation
								End Site
								{
									OFFSET 0.000000 15.991302 0.000000
								}
							}
						}
						JOINT newVegas:Right_CapeA
						{
							OFFSET -5.115540 -8.608795 -10.395824
							CHANNELS 3 Xrotation Yrotation Zrotation
							JOINT newVegas:Right_CapeA1
							{
								OFFSET 0.000000 -8.688499 0.000000
								CHANNELS 3 Xrotation Yrotation Zrotation
								End Site
								{
									OFFSET 0.000000 8.688499 0.000000
								}
							}
						}
						JOINT newVegas:Right_CapeB
						{
							OFFSET -26.118187 -8.608795 -7.079266
							CHANNELS 3 Xrotation Yrotation Zrotation
							JOINT newVegas:Right_CapeB1
							{
								OFFSET 0.000000 -8.688499 0.000000
								CHANNELS 3 Xrotation Yrotation Zrotation
								End Site
								{
									OFFSET 0.000000 8.688499 0.000000
								}
							}
						}
					}
				}
				JOINT newVegas:Left_Collar
				{
					OFFSET 18.625099 8.655502 8.828100
					CHANNELS 3 Xrotation Yrotation Zrotation
					JOINT newVegas:Left_Collar1
					{
						OFFSET 14.783401 10.540405 -1.259500
						CHANNELS 3 Xrotation Yrotation Zrotation
						End Site
						{
							OFFSET 0.000000 18.199875 0.000000
						}
					}
				}
				JOINT newVegas:Collar_Back
				{
					OFFSET 0.000000 15.630707 -20.132601
					CHANNELS 3 Xrotation Yrotation Zrotation
					End Site
					{
						OFFSET 0.000000 22.523010 0.000000
					}
				}
				JOINT newVegas:Left_Peck
				{
					OFFSET 17.239599 -5.132599 25.482599
					CHANNELS 3 Xrotation Yrotation Zrotation
					End Site
					{
						OFFSET 0.000000 22.523010 0.000000
					}
				}
				JOINT newVegas:Right_Peck
				{
					OFFSET -17.239599 -5.132202 25.482599
					CHANNELS 3 Xrotation Yrotation Zrotation
					End Site
					{
						OFFSET 0.000000 22.523010 0.000000
					}
				}
				JOINT newVegas:Right_Collar
				{
					OFFSET -18.625099 8.655792 8.828100
					CHANNELS 3 Xrotation Yrotation Zrotation
					JOINT newVegas:Right_Collar1
					{
						OFFSET -14.783401 10.539993 -1.259500
						CHANNELS 3 Xrotation Yrotation Zrotation
						End Site
						{
							OFFSET 0.000000 18.199631 0.000000
						}
					}
				}
			}
		}
		JOINT newVegas:Belly
		{
			OFFSET 0.000000 -6.540398 9.014299
			CHANNELS 3 Xrotation Yrotation Zrotation
			End Site
			{
				OFFSET 0.000000 11.566666 0.000000
			}
		}
	}
	JOINT newVegas:ElvisFacialAnim_Joint
	{
		OFFSET 1.000000 -95.330101 -8.825800
		CHANNELS 3 Xrotation Yrotation Zrotation
		End Site
		{
			OFFSET 0.000000 35.315800 0.000000
		}
	}
}
MOTION
Frames: 4
Frame Time: 0.033333
0.124490 94.838547 3.895586 1.782600 -0.194908 -0.424304 -0.000000 0.000000 0.000000 -6.108050 -7.088388 5.230967 14.387889 -0.527706 -0.149957 -8.751612 14.496103 -5.250127 -0.000000 -0.000000 0.000000 0.000000 -0.000000 -0.000000 -11.731498 -13.421215 -6.136245 15.962348 0.332138 0.279560 -6.033787 -2.206502 3.856763 0.000000 -0.000000 0.000000 0.000000 -0.000002 -0.000000 0.004060 0.195876 0.253223 0.007238 0.380737 0.514509 0.007239 0.380737 0.514509 2.667418 0.580760 -0.528550 2.667419 0.580760 -0.528550 0.000000 -0.000000 0.000000 2.667420 0.580760 -0.528549 2.667492 0.580761 -0.528551 0.000002 0.000000 -0.000000 0.000000 -0.000000 0.000000 2.412258 -0.627222 -4.046538 18.826527 -36.726549 -64.798449 -3.287217 -25.471251 -0.424770 -9.934732 -3.940678 8.705097 14.170827 22.588942 6.519987 4.839234 -1.830716 -0.603012 0.000000 0.000000 -0.000003 5.818951 -0.568714 -28.234525 0.142433 0.908322 -26.660528 0.000000 0.000002 0.000003 -1.291235 2.321497 -36.213028 0.006554 0.284872 -0.032394 -0.000004 -0.000002 -0.000002 -4.873513 7.639830 -36.838707 -0.605302 -2.886363 -28.939792 0.000000 -0.000002 -0.000002 1.708254 5.368540 -31.383715 -0.963407 -6.334106 -31.067658 0.000001 -0.000003 -0.000004 -0.000003 -0.000001 0.000001 -0.000003 -0.000001 0.000001 -0.000004 -0.000001 0.000001 -0.000001 0.000000 0.000001 -0.000000 0.000000 0.000000 -0.000001 0.000000 0.000001 -0.000002 -0.000000 0.000001 4.202793 5.112131 2.974245 18.751244 35.056110 61.971024 -9.517541 26.751676 -0.404492 -0.081341 -4.836771 -2.689885 -18.641185 14.767067 -16.157244 15.582110 -8.032666 -3.612014 -0.000004 -0.000002 -0.000002 -6.873996 -6.140322 -10.410221 1.513211 -2.880812 44.061981 0.000003 0.000001 -0.000001 -2.618171 -2.038168 40.129253 -0.608982 2.266827 42.145146 0.000000 0.000001 0.000000 3.209838 -0.897939 42.132527 -2.500259 4.810591 49.177529 -0.000000 0.000006 -0.000000 2.917898 0.245291 52.073454 -5.800325 0.154233 48.387997 -0.000000 0.000002 -0.000000 -0.000001 -0.000001 0.000001 -0.000001 -0.000001 0.000001 -0.000001 -0.000001 0.000000 0.000000 0.000002 0.000002 0.000000 0.000001 0.000000 0.000000 0.000002 0.000002 0.000000 0.000001 0.000001 0.000000 0.000000 -0.000000 0.000000 0.000000 -0.000000 0.000000 0.000000 -0.000000 0.000000 0.000000 -0.000000 0.000000 0.000000 -0.000000 0.000000 0.000000 -0.000000 0.000000 0.000000 -0.000000 -0.000000 0.000000 0.000000 -0.000000 0.000000 0.000000 
0.168221 94.687363 3.979279 1.559492 0.113629 -0.362929 -0.000000 -0.000000 0.000000 -6.509593 -7.677759 5.042479 15.674903 -0.612004 -0.252197 -9.433132 14.824847 -5.137371 -0.000000 0.000000 -0.000000 0.000000 -0.000000 0.000001 -12.197960 -14.422402 -6.746991 17.432400 0.464195 0.441617 -6.942716 -1.483556 3.855705 0.000000 0.000000 -0.000000 0.000000 -0.000001 -0.000001 -0.006800 0.201288 0.216254 -0.014358 0.392558 0.435453 -0.014358 0.392558 0.435453 2.721615 0.512232 -0.577209 2.721624 0.512233 -0.577209 0.000000 -0.000000 0.000000 2.721619 0.512233 -0.577209 2.721684 0.512232 -0.577209 -0.000001 -0.000000 0.000000 0.000000 -0.000000 -0.000000 2.435480 -0.588282 -4.544808 19.705741 -37.273818 -63.311195 -3.283325 -26.095643 -0.432791 -9.169587 -4.833639 8.349129 13.452449 21.744568 7.716747 4.717534 -1.605770 -1.427171 0.000001 -0.000000 -0.000003 5.488261 -0.442252 -29.919046 0.135783 0.878480 -26.243217 -0.000001 -0.000000 0.000002 -1.300441 2.429564 -37.320567 0.002976 0.237573 -0.027175 0.000001 0.000000 0.000003 -4.646817 7.745236 -37.293318 -0.573003 -2.810160 -28.299338 0.000001 0.000001 0.000001 1.941497 5.175312 -31.427630 -0.775694 -6.017884 -29.294244 0.000002 -0.000003 0.000001 -0.000001 -0.000000 0.000000 -0.000001 -0.000000 0.000000 -0.000002 -0.000000 0.000000 0.000001 -0.000002 -0.000000 0.000001 0.000000 -0.000001 0.000001 -0.000002 -0.000000 -0.000001 0.000000 -0.000001 4.167717 4.849950 3.436324 19.854071 35.251242 60.604344 -9.277148 27.527843 -0.405670 -0.512228 -4.800163 -2.754618 -19.329394 15.274402 -16.207752 16.441491 -9.503880 -3.051680 0.000001 0.000003 0.000001 -7.320142 -5.859970 -9.521466 1.497948 -2.853088 43.757600 0.000003 0.000001 -0.000001 -2.797228 -1.833257 41.098491 -0.623893 2.312845 42.505012 -0.000001 0.000003 -0.000001 3.282111 -0.782937 42.266044 -2.504624 4.781149 49.137696 -0.000000 -0.000003 -0.000001 2.935136 0.882589 52.204010 -5.801514 -0.079345 47.145374 0.000001 0.000001 0.000001 0.000000 0.000001 -0.000001 -0.000001 -0.000001 0.000000 0.000000 0.000001 -0.000001 -0.000002 0.000000 -0.000000 -0.000002 -0.000001 -0.000000 -0.000002 0.000000 -0.000000 -0.000002 -0.000001 -0.000000 -0.000000 -0.000000 -0.000000 -0.000000 -0.000000 -0.000000 -0.000000 -0.000000 -0.000000 -0.000000 -0.000000 -0.000000 -0.000000 -0.000000 -0.000000 -0.000000 -0.000000 -0.000000 -0.000000 -0.000000 -0.000000 0.000000 -0.000000 0.000000 -0.000000 -0.000000 0.000000 
0.218130 94.525230 4.061112 1.320794 0.527000 -0.307195 -0.000000 0.000000 0.000000 -6.971985 -8.391903 4.829579 17.034471 -0.765170 -0.345086 -10.122508 15.158433 -5.023391 0.000000 0.000000 0.000000 0.000000 0.000000 -0.000000 -12.624601 -15.546808 -7.378748 18.883632 0.559669 0.544882 -7.873093 -0.710040 3.900542 0.000000 -0.000000 -0.000000 0.000001 -0.000002 -0.000000 -0.019631 0.205257 0.166298 -0.039843 0.401650 0.332320 -0.039843 0.401649 0.332320 2.809253 0.379097 -0.648001 2.809341 0.379096 -0.648000 -0.000000 0.000000 0.000000 2.809293 0.379094 -0.647998 2.809219 0.379082 -0.647995 -0.000000 0.000000 0.000000 -0.000000 0.000000 0.000000 2.465077 -0.545774 -5.137578 21.112579 -37.585042 -61.310326 -3.192554 -27.660495 -0.451543 -8.661241 -5.463902 7.791844 12.683669 20.717224 9.080131 4.538660 -1.356465 -2.278789 0.000003 -0.000002 -0.000003 5.137529 -0.293469 -31.650485 0.124885 0.846341 -25.757079 -0.000002 -0.000000 -0.000004 -1.305067 2.534169 -38.935613 0.000255 0.189324 -0.021912 -0.000000 -0.000002 0.000001 -4.437781 7.757293 -38.141258 -0.541640 -2.732007 -27.663559 -0.000002 0.000001 -0.000001 2.126960 4.830161 -31.698461 -0.609718 -5.685436 -27.546441 0.000005 -0.000002 -0.000000 -0.000001 0.000001 -0.000000 -0.000001 0.000001 -0.000000 -0.000002 0.000001 0.000000 -0.000003 0.000001 0.000001 -0.000003 0.000002 0.000001 -0.000003 0.000001 0.000001 -0.000005 0.000002 0.000001 4.138058 4.566974 3.875835 21.077035 35.551213 59.200159 -9.024287 28.413129 -0.407321 -0.875438 -4.745339 -2.617195 -20.017464 15.734533 -16.265778 17.346534 -11.025285 -2.443941 -0.000003 -0.000004 -0.000001 -7.798022 -5.608450 -8.653489 1.481594 -2.823782 43.440085 -0.000008 -0.000001 -0.000002 -3.020400 -1.575712 42.177118 -0.635860 2.356721 42.785715 0.000000 0.000002 -0.000002 3.387460 -0.705022 42.329018 -2.499316 4.740941 48.965944 0.000000 0.000002 -0.000000 2.958783 1.549944 52.387954 -5.811109 -0.330202 45.816605 -0.000000 -0.000000 -0.000001 -0.000001 -0.000001 0.000001 -0.000001 -0.000002 0.000002 -0.000001 -0.000001 -0.000000 -0.000002 0.000002 -0.000000 -0.000002 0.000001 -0.000000 -0.000002 0.000002 -0.000000 -0.000002 0.000002 -0.000000 -0.000000 -0.000000 0.000000 -0.000000 -0.000000 0.000000 -0.000000 -0.000000 0.000000 -0.000000 -0.000000 0.000000 -0.000000 -0.000000 0.000000 -0.000000 -0.000000 0.000000 -0.000000 -0.000000 0.000000 -0.000000 0.000000 -0.000000 -0.000000 0.000000 0.000000 
0.268564 94.340485 4.157464 1.032511 1.030258 -0.280311 -0.000000 -0.000000 -0.000000 -7.492481 -8.971375 4.671116 18.588006 -0.923679 -0.437936 -10.911713 15.239733 -4.939713 -0.000000 0.000000 -0.000000 -0.000001 -0.000000 0.000000 -12.969061 -16.708219 -7.991142 20.356161 0.637697 0.603790 -8.860065 0.017861 3.977865 -0.000000 -0.000002 -0.000000 0.000000 -0.000002 -0.000000 -0.034087 0.205897 0.105949 -0.068544 0.404217 0.211313 -0.068544 0.404217 0.211313 2.953116 0.188793 -0.733530 2.953178 0.188792 -0.733528 0.000001 0.000000 -0.000000 2.953159 0.188788 -0.733528 2.953151 0.188794 -0.733528 0.000001 0.000000 0.000000 0.000001 0.000000 0.000000 2.498366 -0.506859 -5.684694 23.032381 -37.885058 -58.914528 -3.010724 -29.868410 -0.469376 -8.000927 -6.145973 7.440716 11.916977 19.536248 10.500834 4.297454 -1.073612 -3.189474 0.000002 -0.000001 -0.000001 4.795685 -0.094971 -34.018823 0.116476 0.809703 -25.128968 0.000001 -0.000002 -0.000003 -1.380845 2.492629 -41.005222 -0.000398 0.142482 -0.016797 -0.000001 -0.000001 0.000002 -4.258085 7.703407 -38.872693 -0.517637 -2.656050 -27.109591 -0.000000 -0.000000 -0.000003 2.333450 4.489858 -32.199120 -0.474915 -5.354403 -25.960378 -0.000001 -0.000002 0.000000 0.000002 0.000000 -0.000000 0.000002 0.000000 -0.000000 0.000001 0.000000 -0.000000 -0.000001 -0.000001 -0.000001 -0.000000 -0.000001 -0.000000 -0.000001 -0.000001 -0.000001 -0.000002 -0.000001 -0.000001 4.112753 4.273405 4.311887 22.480130 36.114991 57.631476 -8.761565 29.292175 -0.407971 -1.044876 -4.393499 -2.486858 -20.701238 16.074809 -16.291314 18.245167 -12.516690 -1.805270 0.000000 -0.000002 -0.000001 -8.318598 -5.378302 -7.947675 1.464585 -2.792357 43.101523 -0.000005 0.000001 -0.000003 -3.285125 -1.280054 43.248369 -0.645943 2.400709 43.026814 0.000001 -0.000000 0.000000 3.593949 -0.771391 42.100989 -2.495977 4.698948 48.799055 -0.000000 -0.000001 0.000001 3.090153 2.112618 52.403038 -5.833629 -0.602710 44.367495 -0.000001 0.000005 0.000001 0.000000 -0.000001 0.000001 0.000000 -0.000001 0.000002 0.000000 -0.000001 0.000000 -0.000000 0.000002 0.000000 0.000000 0.000002 0.000001 -0.000000 0.000002 0.000000 0.000000 0.000002 0.000001 0.000000 0.000000 -0.000000 0.000000 0.000000 -0.000000 0.000000 0.000000 -0.000000 0.000000 0.000000 -0.000000 0.000000 0.000000 -0.000000 0.000000 0.000000 -0.000000 0.000000 0.000000 -0.000000 -0.000000 0.000000 0.000000 -0.000000 -0.000000 -0.000000 
